<svg width="16" height="16" viewBox="0 0 16 16" fill="none" xmlns="http://www.w3.org/2000/svg">
<g id="pen ">
<path id="Vector" fill-rule="evenodd" clip-rule="evenodd" d="M9.39942 1.5941C10.4138 0.579798 12.0583 0.579798 13.0726 1.5941C14.0869 2.60841 14.0869 4.25292 13.0726 5.26722L8.00989 10.3299C7.72456 10.6152 7.55029 10.7895 7.35609 10.941C7.12729 11.1195 6.87969 11.2725 6.61774 11.3974C6.39539 11.5033 6.16158 11.5812 5.77874 11.7088L3.99698 12.3028L3.5692 12.4454C3.1863 12.573 2.76415 12.4733 2.47876 12.1879C2.19336 11.9025 2.0937 11.4804 2.22134 11.0975L2.95784 8.88791C3.08544 8.50511 3.16336 8.27131 3.26932 8.04897C3.39417 7.78697 3.54718 7.53937 3.72566 7.31057C3.87714 7.11637 4.05142 6.94211 4.33679 6.65677L9.39942 1.5941ZM3.9739 11.2564L3.41033 10.6928L3.89594 9.23591C4.03733 8.81177 4.09573 8.63931 4.17205 8.47917C4.26565 8.28277 4.38036 8.09717 4.51417 7.92557C4.62327 7.78571 4.75141 7.65637 5.06756 7.34017L8.99489 3.41289C9.15696 3.81955 9.43129 4.31037 9.89382 4.77289C10.3563 5.23541 10.8472 5.50969 11.2538 5.6718L7.32649 9.59911C7.01029 9.91524 6.88096 10.0434 6.74109 10.1525C6.56953 10.2863 6.38392 10.401 6.18752 10.4946C6.02738 10.571 5.85492 10.6294 5.43075 10.7707L3.9739 11.2564ZM12.0506 4.87498C11.968 4.85685 11.8648 4.82959 11.7475 4.78887C11.4248 4.67692 11.0004 4.46523 10.6009 4.06578C10.2014 3.66633 9.98976 3.24188 9.87782 2.91919C9.83709 2.80184 9.80982 2.69862 9.79169 2.61607L10.1066 2.30121C10.7304 1.67743 11.7417 1.67743 12.3655 2.30121C12.9892 2.92499 12.9892 3.93633 12.3655 4.56011L12.0506 4.87498ZM2.16664 14.6667C2.16664 14.3906 2.3905 14.1667 2.66664 14.1667H13.3333V15.1667H2.66664C2.3905 15.1667 2.16664 14.9428 2.16664 14.6667Z" fill="#505B76"/>
</g>
</svg>
