<svg width="16" height="16" viewBox="0 0 16 16" fill="none" xmlns="http://www.w3.org/2000/svg">
<g id="trash">
<path id="Vector" d="M2.66675 4H13.3334M10.6667 4L10.4863 3.45871C10.3115 2.93417 10.224 2.67189 10.0619 2.47799C9.91868 2.30675 9.73481 2.17421 9.52708 2.09252C9.29181 2 9.01541 2 8.46248 2H7.53768C6.98475 2 6.70835 2 6.47309 2.09252C6.26536 2.17421 6.08147 2.30675 5.93827 2.47799C5.77611 2.67189 5.68869 2.93417 5.51384 3.45871L5.33341 4M12.0001 4V10.8C12.0001 11.9201 12.0001 12.4801 11.7821 12.908C11.5903 13.2843 11.2844 13.5903 10.9081 13.782C10.4802 14 9.92021 14 8.80008 14H7.20008C6.07997 14 5.51992 14 5.0921 13.782C4.71577 13.5903 4.40981 13.2843 4.21807 12.908C4.00008 12.4801 4.00008 11.9201 4.00008 10.8V4M9.33341 6.66667V11.3333M6.66675 6.66667V11.3333" stroke="#ED1C24" stroke-linecap="round" stroke-linejoin="round"/>
</g>
</svg>
